<svg width="100" height="82" viewBox="0 0 100 82" fill="none" xmlns="http://www.w3.org/2000/svg">
<path d="M15.3846 23.7389H0V58.039H15.3846L44.4725 79.6447C44.4725 79.6447 49.7688 84.1004 49.7688 79.4766C49.7688 74.8528 49.7688 5.83219 49.7688 1.62874C49.7688 -1.98622 45.061 1.54467 45.061 1.54467L15.3846 23.7389Z" fill="#660033"/>
<path d="M65.3942 21.904C64.1728 20.6909 62.1372 20.6909 60.9158 21.904C59.6944 23.1171 59.6944 25.139 60.9158 26.3522C64.987 30.396 67.0226 35.6529 67.0226 40.9773C67.0226 46.3016 64.987 51.5586 60.9158 55.6024C59.6944 56.8155 59.6944 58.8374 60.9158 60.0506C61.5265 60.6572 62.3407 60.9941 63.155 60.9941C63.9692 60.9941 64.7835 60.7246 65.3942 60.0506C70.6868 54.7936 73.3331 47.8518 73.3331 40.9773C73.3331 34.0354 70.6868 27.1609 65.3942 21.904Z" fill="#660033"/>
<path d="M75.1459 11.9058C73.9808 10.6903 72.0391 10.6903 70.874 11.9058C69.709 13.1213 69.709 15.1472 70.874 16.3627C77.4113 23.1832 80.6475 32.0296 80.6475 40.9435C80.6475 49.8574 77.4113 58.7713 70.874 65.5918C69.709 66.8073 69.709 68.8332 70.874 70.0487C71.4566 70.6565 72.2333 70.9941 73.01 70.9941C73.7867 70.9941 74.5634 70.6565 75.1459 70.0487C82.8481 62.0127 86.6669 51.4106 86.6669 40.9435C86.6669 30.4089 82.8481 19.9418 75.1459 11.9058Z" fill="#660033"/>
<path d="M82.4546 1.90209C81.1441 0.691492 78.96 0.691492 77.6496 1.90209C76.3391 3.11268 76.3391 5.13033 77.6496 6.34093C87.9876 15.8912 93.1566 28.4006 93.1566 40.9101C93.1566 53.4868 87.9876 65.9962 77.6496 75.6137C76.3391 76.8243 76.3391 78.842 77.6496 80.0526C78.3048 80.6579 79.1785 80.9941 80.0521 80.9941C80.9257 80.9941 81.7994 80.7251 82.4546 80.0526C94.103 69.2245 100 55.1009 100 40.9101C100 26.7865 94.103 12.6629 82.4546 1.90209Z" fill="#660033"/>
</svg>
